<svg width="23" height="17" viewBox="0 0 23 17" fill="none" xmlns="http://www.w3.org/2000/svg">
<path d="M0 8.24603C0 8.04712 0.0790176 7.85636 0.21967 7.7157C0.360322 7.57505 0.551088 7.49603 0.75 7.49603H15.435L9.21 1.27103C9.07338 1.12958 8.99779 0.940131 8.99949 0.743483C9.0012 0.546835 9.08008 0.358726 9.21914 0.21967C9.35819 0.0806141 9.5463 0.00173717 9.74295 2.8352e-05C9.9396 -0.00168046 10.129 0.0739153 10.2705 0.210534L17.7705 7.71053C17.9111 7.85118 17.9901 8.04191 17.9901 8.24078C17.9901 8.43966 17.9111 8.63039 17.7705 8.77103L10.2705 16.271C10.129 16.4077 9.9396 16.4832 9.74295 16.4815C9.5463 16.4798 9.35819 16.401 9.21914 16.2619C9.08008 16.1228 9.0012 15.9347 8.99949 15.7381C8.99779 15.5414 9.07338 15.352 9.21 15.2105L15.435 8.98553H0.75C0.551088 8.98553 0.360322 8.90652 0.21967 8.76586C0.0790176 8.62521 0 8.43445 0 8.23553V8.24603ZM21 14.246C21 14.4449 21.079 14.6357 21.2197 14.7764C21.3603 14.917 21.5511 14.996 21.75 14.996C21.9489 14.996 22.1397 14.917 22.2803 14.7764C22.421 14.6357 22.5 14.4449 22.5 14.246V2.24603C22.5 2.04712 22.421 1.85636 22.2803 1.7157C22.1397 1.57505 21.9489 1.49603 21.75 1.49603C21.5511 1.49603 21.3603 1.57505 21.2197 1.7157C21.079 1.85636 21 2.04712 21 2.24603V14.246Z" fill="#495E57"/>
</svg>
