<svg width="13" height="17" viewBox="0 0 13 17" fill="none" xmlns="http://www.w3.org/2000/svg">
<path d="M0.357481 9.01889L11.1908 16.5189C11.3158 16.6054 11.4621 16.6561 11.6139 16.6654C11.7656 16.6747 11.917 16.6423 12.0517 16.5718C12.1864 16.5012 12.2992 16.3952 12.3779 16.2651C12.4566 16.135 12.4983 15.9859 12.4983 15.8339V0.833886C12.4984 0.681783 12.4569 0.532554 12.3782 0.40237C12.2996 0.272187 12.1868 0.166015 12.0521 0.0953618C11.9174 0.0247081 11.7659 -0.00773267 11.6141 0.00155539C11.4623 0.0108435 11.3159 0.061506 11.1908 0.148052L0.357481 7.64805C0.247113 7.72508 0.156978 7.82762 0.0947396 7.94695C0.0325012 8.06628 0 8.19888 0 8.33347C0 8.46806 0.0325012 8.60066 0.0947396 8.71999C0.156978 8.83932 0.247113 8.94186 0.357481 9.01889Z" fill="#495E57"/>
</svg>
