<svg width="26" height="26" viewBox="0 0 26 26" fill="none" xmlns="http://www.w3.org/2000/svg">
<path d="M5.75 0.75V3.75M19.75 0.75V3.75M0.75 21.75V6.75C0.75 5.95435 1.06607 5.19129 1.62868 4.62868C2.19129 4.06607 2.95435 3.75 3.75 3.75H21.75C22.5457 3.75 23.3087 4.06607 23.8713 4.62868C24.4339 5.19129 24.75 5.95435 24.75 6.75V21.75M0.75 21.75C0.75 22.5457 1.06607 23.3087 1.62868 23.8713C2.19129 24.4339 2.95435 24.75 3.75 24.75H21.75C22.5457 24.75 23.3087 24.4339 23.8713 23.8713C24.4339 23.3087 24.75 22.5457 24.75 21.75M0.75 21.75V11.75C0.75 10.9544 1.06607 10.1913 1.62868 9.62868C2.19129 9.06607 2.95435 8.75 3.75 8.75H21.75C22.5457 8.75 23.3087 9.06607 23.8713 9.62868C24.4339 10.1913 24.75 10.9544 24.75 11.75V21.75" stroke="black" stroke-width="1.5" stroke-linecap="round" stroke-linejoin="round"/>
</svg>
