<svg width="13" height="17" viewBox="0 0 13 17" fill="none" xmlns="http://www.w3.org/2000/svg">
<path d="M12.1408 9.01889L1.30748 16.5189C1.18246 16.6054 1.03615 16.6561 0.884406 16.6654C0.73266 16.6747 0.581255 16.6423 0.446585 16.5718C0.311915 16.5012 0.199114 16.3952 0.120392 16.2651C0.0416701 16.135 2.90358e-05 15.9859 -2.22723e-05 15.8339V0.833886C-0.00012306 0.681783 0.0414068 0.532554 0.120068 0.40237C0.198728 0.272187 0.311519 0.166015 0.446216 0.0953618C0.580913 0.0247081 0.732379 -0.00773267 0.884198 0.00155539C1.03602 0.0108435 1.1824 0.061506 1.30748 0.148052L12.1408 7.64805C12.2512 7.72508 12.3413 7.82762 12.4036 7.94695C12.4658 8.06628 12.4983 8.19888 12.4983 8.33347C12.4983 8.46806 12.4658 8.60066 12.4036 8.71999C12.3413 8.83932 12.2512 8.94186 12.1408 9.01889Z" fill="#495E57"/>
</svg>
