<?xml version="1.0" encoding="UTF-8"?>
<svg version="1.1" xmlns="http://www.w3.org/2000/svg" width="710" height="1224">
<path d="M0 0 C234.3 0 468.6 0 710 0 C710 403.92 710 807.84 710 1224 C475.7 1224 241.4 1224 0 1224 C0 820.08 0 416.16 0 0 Z " fill="#485E52" transform="translate(0,0)"/>
<path d="M0 0 C1.30420898 0.16375122 1.30420898 0.16375122 2.63476562 0.33081055 C15.10166376 2.10035817 26.86148816 6.34178615 38.625 10.6875 C47.47684258 13.92061353 56.2760763 16.97318593 65.45800781 19.12866211 C69.79244487 20.20048719 72.80505824 21.45626809 75.875 24.75 C77.03527735 28.20320639 77.20672312 29.93554547 75.828125 33.3203125 C70.8247497 40.82537544 65.18494077 47.33887942 58.875 53.75 C57.88886719 54.77287109 57.88886719 54.77287109 56.8828125 55.81640625 C42.22801635 69.87368926 18.98623761 73.54156685 -0.125 77.75 C4.91595053 81.27066386 10.06178522 84.45099179 15.4375 87.4375 C44.11832688 103.56948932 68.39462174 126.19212364 88.875 151.75 C89.77130642 152.8314168 90.66847565 153.91211893 91.56640625 154.9921875 C130.87139584 202.82710843 137.57084217 270.5632072 131.89941406 330.11694336 C131.40174717 334.72157887 130.85088254 339.31637539 130.24658203 343.90820312 C129.92480103 346.36913012 129.63691466 348.82942483 129.37109375 351.296875 C128.49476632 358.90750245 126.88821896 366.20522378 124.9375 373.59765625 C124.01189022 377.13325086 123.22639312 380.68578092 122.47387695 384.26171875 C115.86012458 415.50070985 103.82691965 445.92924377 89.0625 474.1875 C88.70140137 474.88004883 88.34030273 475.57259766 87.96826172 476.28613281 C86.3742092 479.26080822 85.06947311 481.55689401 82.65234375 483.95703125 C79.70742439 488.58476167 80.27494086 493.63148047 80.25 499 C80.00424437 519.86465292 80.00424437 519.86465292 73.8046875 526.2421875 C64.04740117 533.86630192 50.8436185 532.62302014 39.23828125 531.2421875 C25.56434298 529.35553019 10.32446941 525.81103642 1.265625 514.60546875 C-8.39967614 503.03205835 -20.18331489 499.71846024 -34.15449524 495.59094238 C-41.21294009 493.48102188 -48.03244274 490.85602888 -54.875 488.125 C-56.03676758 487.66158203 -57.19853516 487.19816406 -58.39550781 486.72070312 C-84.55587409 476.18461748 -106.34942502 463.78021962 -127.5715332 445.09643555 C-129.13448743 443.74177697 -130.72663237 442.42983244 -132.328125 441.12109375 C-134.57043842 439.2201381 -136.44051593 437.43086965 -138.3125 435.1875 C-140.8157093 432.24319655 -143.38509658 429.38558077 -146.03051758 426.56811523 C-156.59538185 415.26262886 -165.04160337 403.17752964 -172.87158203 389.86914062 C-173.97759713 387.99921249 -175.10590792 386.14606101 -176.24609375 384.296875 C-182.65128447 373.62585304 -187.40277288 362.24188128 -192.125 350.75 C-192.63426025 349.52555176 -192.63426025 349.52555176 -193.15380859 348.27636719 C-197.09986038 338.67545514 -199.99728005 328.97882184 -202.375 318.875 C-202.60928711 317.88459717 -202.84357422 316.89419434 -203.08496094 315.8737793 C-203.8349482 312.50932783 -204.4954805 309.13915985 -205.125 305.75 C-205.25877045 305.0425766 -205.39254089 304.3351532 -205.53036499 303.60629272 C-208.26819813 288.66247678 -208.55867757 273.90248595 -208.46118164 258.73950195 C-208.43755468 254.82156731 -208.44065113 250.90431637 -208.44726562 246.98632812 C-208.42710766 227.53772719 -207.94949129 208.19032845 -203.4375 189.1875 C-203.17694824 188.06110107 -202.91639648 186.93470215 -202.64794922 185.77416992 C-198.68763513 169.16878657 -193.33093373 153.72195083 -185.125 138.75 C-184.48037337 137.53650899 -183.83584108 136.32296787 -183.19140625 135.109375 C-176.38768719 122.53795773 -167.3019983 109.67655281 -156.43359375 100.2890625 C-153.40120262 96.72260845 -153.88143416 91.19323812 -153.5300293 86.70629883 C-152.11804149 69.13964915 -149.93330901 50.2419527 -136.125 37.75 C-127.38577 31.26178379 -118.55998902 28.44803587 -107.72827148 28.64038086 C-96.01968673 28.82959269 -90.01030125 27.02570798 -81.640625 19.07226562 C-59.96468769 0.1616863 -27.2849391 -3.52765985 0 0 Z " fill="#FDFDFD" transform="translate(396.125,337.25)"/>
<path d="M0 0 C232.65 0 465.3 0 705 0 C705 226.05 705 452.1 705 685 C688 685 688 685 686 684 C686 464.55 686 245.1 686 19 C464.24 19 242.48 19 14 19 C14 264.85 14 510.7 14 764 C242.03 764 470.06 764 705 764 C705 770.6 705 777.2 705 784 C472.35 784 239.7 784 0 784 C0 525.28 0 266.56 0 0 Z " fill="#FBFBFB" transform="translate(0,210)"/>
<path d="M0 0 C11.14529123 9.58795256 16.33011461 24.83574767 18.3203125 38.99609375 C19.45977503 58.76138602 16.10049768 78.5238615 3.0546875 94.046875 C-8.12986288 106.54749015 -24.64009913 112.32340947 -41.078125 113.31640625 C-57.40883679 113.91744055 -70.76555122 109.69769374 -83.4296875 99.24609375 C-92.37316706 90.91669113 -99.15360664 77.1905359 -99.85668945 64.90258789 C-99.91162442 61.656172 -99.95632197 58.41062014 -99.97485352 55.16381836 C-99.98627769 53.77634404 -100.00657477 52.38891025 -100.03637695 51.00170898 C-100.40430177 33.83668022 -95.91233051 18.82547046 -83.91796875 6.2421875 C-83.17933594 5.50097656 -82.44070313 4.75976562 -81.6796875 3.99609375 C-81.13699219 3.43019531 -80.59429687 2.86429688 -80.03515625 2.28125 C-59.05593199 -17.74195898 -22.33057914 -16.69910656 0 0 Z " fill="#FBFBFB" transform="translate(544.6796875,1111.00390625)"/>
<path d="M0 0 C16.83 0 33.66 0 51 0 C53.40278387 5.40626371 55.55845742 10.30658976 57.3671875 15.84375 C57.77533691 17.08302246 58.18348633 18.32229492 58.60400391 19.59912109 C58.81196594 20.23742859 59.01992798 20.87573608 59.23419189 21.53338623 C60.31857134 24.86130223 61.41775744 28.18432685 62.515625 31.5078125 C62.83685837 32.48205673 62.83685837 32.48205673 63.1645813 33.47598267 C65.65919255 41.02583367 68.30221149 48.52076519 71 56 C73.16340616 52.75489077 74.3472336 49.51770136 75.609375 45.8671875 C75.8586676 45.15708527 76.10796021 44.44698303 76.36480713 43.71536255 C77.16381902 41.43660104 77.95703162 39.15587069 78.75 36.875 C79.26783916 35.39439479 79.78606482 33.91392469 80.3046875 32.43359375 C82.15529143 27.14787713 84.00572854 21.86209168 85.84350586 16.57189941 C86.66920682 14.19548887 87.49840646 11.82032277 88.328125 9.4453125 C88.70852936 8.3454451 88.70852936 8.3454451 89.09661865 7.22335815 C90.88650853 2.11349147 90.88650853 2.11349147 92 1 C93.59610982 0.90666295 95.19633428 0.88254628 96.79516602 0.88647461 C97.81614883 0.88655014 98.83713165 0.88662567 99.88905334 0.88670349 C100.9994548 0.89186478 102.10985626 0.89702606 103.25390625 0.90234375 C104.94978127 0.90446617 104.94978127 0.90446617 106.67991638 0.90663147 C110.30747065 0.91224981 113.93496424 0.92480542 117.5625 0.9375 C120.01497307 0.94251264 122.4674471 0.94707595 124.91992188 0.95117188 C130.94663813 0.9622252 136.97330876 0.97950212 143 1 C143 6.28 143 11.56 143 17 C139.04 17.99 135.08 18.98 131 20 C130.97687657 30.54381312 130.95908491 41.08762025 130.94818783 51.63145351 C130.942959 56.52685374 130.93586136 61.42223668 130.92456055 66.31762695 C130.91373166 71.03787978 130.90772316 75.75811592 130.90512276 80.4783802 C130.90326851 82.28338954 130.89964791 84.08839792 130.89426994 85.89340019 C130.88705948 88.41259644 130.88600906 90.9317229 130.88647461 93.45092773 C130.88287933 94.20474228 130.87928406 94.95855682 130.87557983 95.73521423 C130.57440464 99.15554231 130.57440464 99.15554231 132 102 C134.28684338 102.2819396 136.57363273 102.44777005 138.87109375 102.62109375 C141 103 141 103 143 105 C143.17163731 107.56292317 143.23264558 110.00345857 143.1875 112.5625 C143.1865332 113.60954102 143.1865332 113.60954102 143.18554688 114.67773438 C143.14031158 119.85968842 143.14031158 119.85968842 142 121 C140.31744765 121.0987517 138.63075972 121.12798904 136.9453125 121.12939453 C135.32858643 121.13412277 135.32858643 121.13412277 133.67919922 121.13894653 C132.50631348 121.1369223 131.33342773 121.13489807 130.125 121.1328125 C128.9302002 121.13376923 127.73540039 121.13472595 126.50439453 121.13571167 C123.9723302 121.13639371 121.44026412 121.13453778 118.90820312 121.13037109 C115.0168874 121.12502321 111.12568711 121.13031533 107.234375 121.13671875 C104.78124974 121.13605797 102.32812456 121.13477682 99.875 121.1328125 C98.70211426 121.13483673 97.52922852 121.13686096 96.32080078 121.13894653 C95.2429834 121.13579437 94.16516602 121.13264221 93.0546875 121.12939453 C92.10062012 121.12859894 91.14655273 121.12780334 90.16357422 121.12698364 C88 121 88 121 87 120 C86.87346802 117.50761431 86.81480175 115.05529559 86.8125 112.5625 C86.80025391 111.86833984 86.78800781 111.17417969 86.77539062 110.45898438 C86.77010158 108.63779099 86.87830793 106.8171308 87 105 C89 103 89 103 99 101 C99 79.88 99 58.76 99 37 C97.02 42.94 95.04 48.88 93 55 C90.875 60.375 90.875 60.375 89.91113281 62.70288086 C88.93925438 65.15314994 88.11065859 67.62170146 87.296875 70.12890625 C84.74718329 77.84039877 82.0083009 85.48113501 79.25390625 93.12133789 C78.36583552 95.58795434 77.48369272 98.05664442 76.6015625 100.52539062 C76.03421571 102.10169268 75.46652035 103.67786932 74.8984375 105.25390625 C74.63694916 105.9882338 74.37546082 106.72256134 74.10604858 107.47914124 C72.97070406 110.61036934 71.85767199 113.21349201 70 116 C66.99201135 116.40721868 64.02678633 116.12971941 61 116 C58.16193447 109.05374629 55.53306632 102.05423015 53.03125 94.98046875 C52.66906372 93.96003983 52.30687744 92.9396109 51.93371582 91.88825989 C51.17305151 89.74316972 50.41342211 87.5977123 49.65478516 85.4519043 C48.5064108 82.20562238 47.35301908 78.96115363 46.19921875 75.71679688 C39.5173463 56.87597976 39.5173463 56.87597976 36.77148438 47.5793457 C35.91029414 44.70008151 34.9503584 41.85107521 34 39 C33.67 59.79 33.34 80.58 33 102 C36.63 102.33 40.26 102.66 44 103 C46 105 46 105 46.23046875 108.44140625 C46.22647911 109.81517304 46.21173177 111.18894114 46.1875 112.5625 C46.18685547 113.26052734 46.18621094 113.95855469 46.18554688 114.67773438 C46.14031158 119.85968842 46.14031158 119.85968842 45 121 C43.58774954 121.0928726 42.17091066 121.11746772 40.75561523 121.11352539 C39.85475693 121.11344986 38.95389862 121.11337433 38.02574158 121.11329651 C37.04658279 121.10813522 36.06742401 121.10297394 35.05859375 121.09765625 C34.06118668 121.0962413 33.0637796 121.09482635 32.03614807 121.09336853 C28.83656876 121.08775114 25.63705831 121.07519571 22.4375 121.0625 C20.27408955 121.05748724 18.11067801 121.05292395 15.94726562 121.04882812 C10.63148675 121.03777607 5.31574829 121.02102104 0 121 C-0.02684312 118.18743719 -0.04676188 115.37512759 -0.0625 112.5625 C-0.07087891 111.76005859 -0.07925781 110.95761719 -0.08789062 110.13085938 C-0.0965143 108.08704779 -0.0522815 106.04316098 0 104 C2.91547595 101.08452405 7.94340044 101.73756356 12 101 C12 74.27 12 47.54 12 20 C8.37 19.34 4.74 18.68 1 18 C0.67 17.67 0.34 17.34 0 17 C0 11.39 0 5.78 0 0 Z " fill="#FCFCFC" transform="translate(272,1101)"/>
<path d="M0 0 C34.7986141 -4.13988393 34.7986141 -4.13988393 43.81744385 1.0447998 C50.48283424 6.55368086 53.53538729 15.57615642 56.5390625 23.43896484 C58.69873172 28.70315858 61.68567046 33.26877408 64.8125 38 C65.86175268 39.6692436 66.90483544 41.34238298 67.94140625 43.01953125 C68.44430176 43.83244629 68.94719727 44.64536133 69.46533203 45.48291016 C79.33687003 61.67374005 79.33687003 61.67374005 83 69 C83.33 52.5 83.66 36 84 19 C81.69 19 79.38 19 77 19 C73.5625 18 73.5625 18 71 17 C70.97315321 14.35409986 70.95323643 11.70846904 70.9375 9.0625 C70.92912109 8.30775391 70.92074219 7.55300781 70.91210938 6.77539062 C70.90347559 4.85005687 70.94775667 2.92464419 71 1 C72.54501451 -0.54501451 73.9866022 -0.12719131 76.13671875 -0.12939453 C77.01432861 -0.13254669 77.89193848 -0.13569885 78.79614258 -0.13894653 C79.75029053 -0.1369223 80.70443848 -0.13489807 81.6875 -0.1328125 C82.66033936 -0.13376923 83.63317871 -0.13472595 84.63549805 -0.13571167 C86.696778 -0.13639358 88.75806008 -0.13453853 90.81933594 -0.13037109 C93.98637688 -0.125023 97.153276 -0.13031572 100.3203125 -0.13671875 C102.31770865 -0.13605797 104.31510471 -0.13477681 106.3125 -0.1328125 C107.26664795 -0.13483673 108.2207959 -0.13686096 109.20385742 -0.13894653 C110.52027222 -0.13421829 110.52027222 -0.13421829 111.86328125 -0.12939453 C112.63969971 -0.12859894 113.41611816 -0.12780334 114.21606445 -0.12698364 C116 0 116 0 117 1 C117.09981214 3.6773138 117.13879875 6.32304175 117.125 9 C117.12886719 9.75023437 117.13273438 10.50046875 117.13671875 11.2734375 C117.12661053 16.87338947 117.12661053 16.87338947 116 18 C114.15108054 18.23363881 112.29511969 18.41303635 110.4375 18.5625 C108.91962891 18.68818359 108.91962891 18.68818359 107.37109375 18.81640625 C106.19740234 18.90728516 106.19740234 18.90728516 105 19 C105.00222061 20.26311508 105.00444122 21.52623016 105.00672913 22.82762146 C105.02695836 34.70323839 105.04197108 46.57885186 105.05181217 58.45448208 C105.05704156 64.56056369 105.0641402 70.66663144 105.07543945 76.77270508 C105.08626637 82.66005147 105.09227642 88.54738449 105.09487724 94.43474007 C105.09673185 96.68632277 105.10035313 98.93790469 105.10573006 101.18948174 C105.11293789 104.33133427 105.11399105 107.47313083 105.11352539 110.61499023 C105.11712067 111.55581955 105.12071594 112.49664886 105.12442017 113.46598816 C105.11405216 119.88594784 105.11405216 119.88594784 104 121 C100.30515831 121.47583143 96.5955086 121.55818964 92.875 121.6875 C91.84117187 121.76677734 90.80734375 121.84605469 89.7421875 121.92773438 C82.27521305 122.13250472 82.27521305 122.13250472 78.99511719 119.21948242 C77.10070937 116.57278759 75.55268146 113.86066905 74 111 C72.99522344 109.35734294 71.99013553 107.71485299 70.97607422 106.07791138 C69.11414815 103.05297199 67.31232565 99.99231139 65.5 96.9375 C64.71149805 95.61507849 63.92259192 94.2928979 63.13330078 92.97094727 C61.53017424 90.28504147 59.92885247 87.59807391 58.32910156 84.91015625 C54.85710186 79.07831825 51.36622132 73.25784674 47.875 67.4375 C47.29685547 66.47126709 46.71871094 65.50503418 46.12304688 64.50952148 C41.80473129 57.30298993 37.40402373 50.15653857 33 43 C33 62.47 33 81.94 33 102 C36.3 102.33 39.6 102.66 43 103 C45 105 45 105 45.23046875 108.44140625 C45.22647911 109.81517304 45.21173177 111.18894114 45.1875 112.5625 C45.18685547 113.26052734 45.18621094 113.95855469 45.18554688 114.67773438 C45.14031158 119.85968842 45.14031158 119.85968842 44 121 C42.61839885 121.0927833 41.23211962 121.11747043 39.84741211 121.11352539 C38.96657455 121.11344986 38.085737 121.11337433 37.1782074 121.11329651 C36.22092239 121.10813522 35.26363739 121.10297394 34.27734375 121.09765625 C33.30213272 121.0962413 32.32692169 121.09482635 31.32215881 121.09336853 C28.19390857 121.08775133 25.06572877 121.07519593 21.9375 121.0625 C19.82226666 121.05748722 17.70703219 121.05292393 15.59179688 121.04882812 C10.39450704 121.03777631 5.19725855 121.02102146 0 121 C-0.02684312 118.18743719 -0.04676188 115.37512759 -0.0625 112.5625 C-0.07087891 111.76005859 -0.07925781 110.95761719 -0.08789062 110.13085938 C-0.0965143 108.08704779 -0.0522815 106.04316098 0 104 C2.86744176 101.13255824 7.96147875 102.3671383 12 102 C12 74.61 12 47.22 12 19 C8.37 18.67 4.74 18.34 1 18 C0 17 0 17 -0.09765625 13.18359375 C-0.09098089 11.60153318 -0.07901875 10.01948841 -0.0625 8.4375 C-0.05798828 7.63119141 -0.05347656 6.82488281 -0.04882812 5.99414062 C-0.03700518 3.99606244 -0.01906914 1.99802217 0 0 Z " fill="#FAFBFA" transform="translate(590,1101)"/>
<path d="M0 0 C0.82502518 0.00719055 1.65005035 0.0143811 2.50007629 0.02178955 C3.36843613 0.0214975 4.23679596 0.02120544 5.13146973 0.02090454 C8.01013582 0.02230116 10.8885451 0.03787791 13.76716614 0.05352783 C15.75970824 0.05725678 17.75225217 0.06010431 19.74479675 0.06210327 C24.99573303 0.06974901 30.24655912 0.08940556 35.49745178 0.11151123 C40.8529664 0.13194942 46.20849878 0.14110065 51.56404114 0.15118408 C62.07711045 0.17265058 72.59009789 0.20679784 83.10310364 0.24884033 C84.60386791 3.25036888 84.24531956 6.33704043 84.23591614 9.62774658 C84.23687286 10.3550145 84.23782959 11.08228241 84.23881531 11.83158875 C84.23949599 13.36902961 84.23764949 14.90647335 84.23347473 16.44390869 C84.22811715 18.80538333 84.23342741 21.16666844 84.23982239 23.52813721 C84.23916174 25.01967409 84.23788085 26.51121085 84.23591614 28.00274658 C84.23794037 28.7131459 84.2399646 29.42354523 84.24205017 30.1554718 C84.21806078 35.13388319 84.21806078 35.13388319 83.10310364 36.24884033 C81.68740241 36.33535644 80.26750863 36.35588937 78.84919739 36.34649658 C77.99519348 36.34327393 77.14118958 36.34005127 76.26130676 36.33673096 C74.91455872 36.3241626 74.91455872 36.3241626 73.54060364 36.31134033 C72.63890442 36.30682861 71.7372052 36.30231689 70.80818176 36.29766846 C68.5730905 36.28584258 66.33812927 36.26936253 64.10310364 36.24884033 C62.40731314 30.3135736 62.10310364 26.81237949 62.10310364 20.24884033 C53.52310364 20.24884033 44.94310364 20.24884033 36.10310364 20.24884033 C36.10310364 29.81884033 36.10310364 39.38884033 36.10310364 49.24884033 C45.67310364 49.24884033 55.24310364 49.24884033 65.10310364 49.24884033 C65.12372864 52.36321533 65.14435364 55.47759033 65.16560364 58.68634033 C65.17470764 59.66916992 65.18381165 60.65199951 65.19319153 61.66461182 C65.19568909 62.43361816 65.19818665 63.20262451 65.20075989 63.99493408 C65.2059967 64.78569336 65.21123352 65.57645264 65.21662903 66.39117432 C65.10310364 68.24884033 65.10310364 68.24884033 64.10310364 69.24884033 C62.03048287 69.33651146 59.9549007 69.35579906 57.88044739 69.34649658 C56.74599182 69.34399902 55.61153625 69.34150146 54.44270325 69.33892822 C52.26366394 69.32527222 52.26366394 69.32527222 50.04060364 69.31134033 C43.14154114 69.28040283 43.14154114 69.28040283 36.10310364 69.24884033 C36.10310364 80.13884033 36.10310364 91.02884033 36.10310364 102.24884033 C45.34310364 102.24884033 54.58310364 102.24884033 64.10310364 102.24884033 C65.33764644 96.4168195 65.33764644 96.4168195 66.55574036 90.58135986 C66.79188049 89.49250488 66.79188049 89.49250488 67.03279114 88.38165283 C67.18989563 87.6380249 67.34700012 86.89439697 67.50886536 86.12823486 C68.10310364 84.24884033 68.10310364 84.24884033 70.10310364 82.24884033 C73.01245944 82.1036629 75.82304964 82.06253237 78.72810364 82.12384033 C79.52990051 82.13286377 80.33169739 82.14188721 81.15779114 82.15118408 C83.13968886 82.1747781 85.12143345 82.21064969 87.10310364 82.24884033 C87.13257963 86.49882531 87.15006006 90.74878337 87.16560364 94.99884033 C87.17398254 96.18606689 87.18236145 97.37329346 87.19099426 98.59649658 C87.19421692 99.77598877 87.19743958 100.95548096 87.20075989 102.17071533 C87.2059967 103.23902588 87.21123352 104.30733643 87.21662903 105.40802002 C87.06024004 110.69901246 86.54268854 115.9738215 86.10310364 121.24884033 C55.41310364 121.24884033 24.72310364 121.24884033 -6.89689636 121.24884033 C-6.89689636 104.24884033 -6.89689636 104.24884033 -5.89689636 103.24884033 C-3.57872548 102.92786282 -1.25910279 102.73663078 1.07185364 102.53009033 C3.09490957 102.45818196 3.09490957 102.45818196 4.10310364 101.24884033 C4.19814614 98.72343031 4.22867522 96.22546907 4.21662903 93.69976807 C4.21677505 92.90958282 4.21692108 92.11939758 4.21707153 91.30526733 C4.21637221 88.68096211 4.20857891 86.05672697 4.20075989 83.43243408 C4.19889578 81.61782368 4.19747184 79.80321277 4.19647217 77.98860168 C4.19264643 73.20293803 4.18281567 68.41730454 4.17176819 63.63165283 C4.16155526 58.75209969 4.1569748 53.8725417 4.15193176 48.99298096 C4.14119345 39.41158747 4.12411637 29.8302164 4.10310364 20.24884033 C0.14310364 19.25884033 -3.81689636 18.26884033 -7.89689636 17.24884033 C-7.95073484 14.79021633 -7.99048674 12.33276483 -8.02189636 9.87384033 C-8.03865417 9.17516846 -8.05541199 8.47649658 -8.07267761 7.75665283 C-8.09033903 5.91986547 -7.99992897 4.08282071 -7.89689636 2.24884033 C-5.30198611 -0.34606992 -3.53444289 0.01292872 0 0 Z " fill="#FBFBFB" transform="translate(139.8968963623047,1100.7511596679688)"/>
<path d="M0 0 C0.78186676 0.00359528 1.56373352 0.00719055 2.36929321 0.01089478 C3.18873917 0.01074875 4.00818512 0.01060272 4.85246277 0.01045227 C7.57416385 0.01115164 10.29579737 0.01894515 13.01748657 0.02676392 C14.89935773 0.02862801 16.78122938 0.03005195 18.6631012 0.03105164 C23.62631561 0.0348775 28.58950096 0.04470836 33.55270386 0.05575562 C38.61322639 0.06596827 43.67375359 0.07054894 48.73428345 0.07559204 C58.67114521 0.08633057 68.60798535 0.10340781 78.54483032 0.12442017 C78.5694832 4.8058127 78.58766771 9.48716776 78.59976196 14.16860962 C78.6048019 15.76236631 78.61163382 17.35611836 78.62026978 18.94985962 C78.63235031 21.23592269 78.63806187 23.52192484 78.64248657 25.80801392 C78.64764786 26.52468735 78.65280914 27.24136078 78.65812683 27.97975159 C78.65832295 29.69505689 78.6067504 31.41023283 78.54483032 33.12442017 C76.44351647 35.22573402 72.0033671 34.30956758 69.10733032 34.31192017 C68.31777954 34.32416626 67.52822876 34.33641235 66.7147522 34.34902954 C64.65675598 34.35429296 62.59921023 34.24648302 60.54483032 34.12442017 C56.84338343 30.42297328 57.83794901 24.10743791 57.54483032 19.12442017 C49.95483032 19.12442017 42.36483032 19.12442017 34.54483032 19.12442017 C34.54483032 27.70442017 34.54483032 36.28442017 34.54483032 45.12442017 C43.45483032 45.12442017 52.36483032 45.12442017 61.54483032 45.12442017 C61.54483032 51.72442017 61.54483032 58.32442017 61.54483032 65.12442017 C52.63483032 65.12442017 43.72483032 65.12442017 34.54483032 65.12442017 C35.03983032 79.47942017 35.03983032 79.47942017 35.54483032 94.12442017 C39.13358032 94.16567017 42.72233032 94.20692017 46.41983032 94.24942017 C47.550177 94.26762817 48.68052368 94.28583618 49.84512329 94.30459595 C50.73344849 94.30959106 51.62177368 94.31458618 52.53701782 94.31973267 C53.9038269 94.33544312 53.9038269 94.33544312 55.29824829 94.35147095 C57.74773468 94.34313009 57.74773468 94.34313009 59.54483032 92.12442017 C60.30301956 89.60379857 60.9838236 87.11521577 61.60733032 84.56192017 C63.42489789 77.2443526 63.42489789 77.2443526 64.54483032 76.12442017 C67.24137886 76.05122395 69.9117449 76.03199479 72.60733032 76.06192017 C73.3659436 76.06643188 74.12455688 76.0709436 74.90615845 76.07559204 C76.78574904 76.08741337 78.66529931 76.10534939 80.54483032 76.12442017 C80.64449092 85.49251663 80.60737378 94.82937072 80.10733032 104.18692017 C80.06809448 104.96599731 80.02885864 105.74507446 79.98843384 106.54776001 C79.66949257 111.99975792 79.66949257 111.99975792 78.54483032 113.12442017 C75.93332744 113.22483474 73.34824668 113.26059073 70.73623657 113.2538147 C69.50947708 113.25644318 69.50947708 113.25644318 68.25793457 113.25912476 C65.54104522 113.26354401 62.82422039 113.26060503 60.10733032 113.25723267 C58.22785428 113.25790568 56.34837833 113.25887569 54.46890259 113.26013184 C50.52447686 113.26160891 46.58007374 113.25945395 42.63565063 113.25479126 C37.56770529 113.24909397 32.4998129 113.25237292 27.43186951 113.25836372 C23.54926145 113.26196908 19.66666605 113.26083087 15.78405762 113.25823593 C13.91485589 113.25756659 12.04565304 113.25839532 10.17645264 113.26071548 C7.56874528 113.2632416 4.96112491 113.25940201 2.35342407 113.2538147 C1.57312836 113.25583893 0.79283264 113.25786316 -0.0111084 113.25994873 C-5.34090714 113.2386827 -5.34090714 113.2386827 -6.45516968 112.12442017 C-6.58170166 109.63203447 -6.64036793 107.17971576 -6.64266968 104.68692017 C-6.65491577 103.99276001 -6.66716187 103.29859985 -6.67977905 102.58340454 C-6.68506809 100.76221116 -6.57686175 98.94155097 -6.45516968 97.12442017 C-4.45516968 95.12442017 -4.45516968 95.12442017 4.54483032 94.12442017 C5.03983032 56.50442017 5.03983032 56.50442017 5.54483032 18.12442017 C2.24483032 17.79442017 -1.05516968 17.46442017 -4.45516968 17.12442017 C-6.45516968 15.12442017 -6.45516968 15.12442017 -6.68563843 11.90176392 C-6.6643689 10.00104126 -6.6643689 10.00104126 -6.64266968 8.06192017 C-6.63622437 6.7921936 -6.62977905 5.52246704 -6.62313843 4.21426392 C-6.34515652 -0.89931029 -4.64925624 0.00902499 0 0 Z " fill="#F9F9F9" transform="translate(622.4551696777344,1.875579833984375)"/>
<path d="M0 0 C18.81 0 37.62 0 57 0 C57 4.95 57 9.9 57 15 C54.75337355 17.24662645 54.06068417 17.50367284 51 18 C48.69 18 46.38 18 44 18 C44 45.06 44 72.12 44 100 C53.9 100 63.8 100 74 100 C75.23114044 94.30242594 75.23114044 94.30242594 76.45263672 88.6027832 C78.71319833 78.28680167 78.71319833 78.28680167 81 76 C83.86267567 75.92674832 86.700719 75.90761795 89.5625 75.9375 C90.36880859 75.94201172 91.17511719 75.94652344 92.00585938 75.95117188 C94.00393756 75.96299482 96.00197783 75.98093086 98 76 C98.22848652 86.76425377 97.95644627 97.39120196 97.0625 108.125 C96.97564941 109.18589844 96.88879883 110.24679687 96.79931641 111.33984375 C96.13210189 118.86789811 96.13210189 118.86789811 95 120 C92.04753646 120.09526806 89.11851579 120.12552452 86.16577148 120.11352539 C85.23903625 120.11367142 84.31230103 120.11381744 83.35748291 120.1139679 C80.27866313 120.11326838 77.19990303 120.10547421 74.12109375 120.09765625 C71.99259982 120.09579221 69.86410547 120.09436824 67.73561096 120.09336853 C62.1213768 120.08954228 56.50716832 120.07971108 50.89294434 120.06866455 C45.16886747 120.05845273 39.44478647 120.0538714 33.72070312 120.04882812 C22.48045562 120.0380889 11.24023396 120.02049124 0 120 C0 114.06 0 108.12 0 102 C5.445 101.01 5.445 101.01 11 100 C11.495 59.41 11.495 59.41 12 18 C8.04 17.67 4.08 17.34 0 17 C0 11.39 0 5.78 0 0 Z " fill="#FAFBFB" transform="translate(3,1102)"/>
<path d="M0 0 C0.94082932 0.00359528 1.88165863 0.00719055 2.85099792 0.01089478 C4.3288829 0.01067574 4.3288829 0.01067574 5.83662415 0.01045227 C9.11023623 0.01115185 12.3837922 0.01894632 15.65739441 0.02676392 C17.92040984 0.02862794 20.18342567 0.03005191 22.44644165 0.03105164 C28.41577764 0.03487807 34.38508948 0.04470942 40.35441589 0.05575562 C46.44043145 0.06596705 52.52645089 0.07054868 58.61247253 0.07559204 C70.56365676 0.08633157 82.51481667 0.10392938 94.46598816 0.12442017 C94.46598816 12.99442017 94.46598816 25.86442017 94.46598816 39.12442017 C89.18598816 39.12442017 83.90598816 39.12442017 78.46598816 39.12442017 C76.32149584 32.6909432 75.42298063 26.82336745 74.46598816 20.12442017 C68.85598816 19.79442017 63.24598816 19.46442017 57.46598816 19.12442017 C57.79598816 44.20442017 58.12598816 69.28442017 58.46598816 95.12442017 C62.42598816 95.45442017 66.38598816 95.78442017 70.46598816 96.12442017 C74.24458284 99.90301485 71.46598816 106.78068032 71.46598816 112.12442017 C52.98598816 112.12442017 34.50598816 112.12442017 15.46598816 112.12442017 C15.46598816 107.17442017 15.46598816 102.22442017 15.46598816 97.12442017 C22.46598816 95.12442017 22.46598816 95.12442017 28.46598816 95.12442017 C28.46598816 70.04442017 28.46598816 44.96442017 28.46598816 19.12442017 C23.18598816 19.45442017 17.90598816 19.78442017 12.46598816 20.12442017 C12.27262878 21.4121936 12.07926941 22.69996704 11.88005066 24.02676392 C11.61749845 25.7052227 11.35445209 27.38360425 11.09098816 29.06192017 C10.90149597 30.33712524 10.90149597 30.33712524 10.70817566 31.63809204 C10.57926941 32.44697876 10.45036316 33.25586548 10.31755066 34.08926392 C10.2023407 34.83812866 10.08713074 35.58699341 9.96842957 36.35855103 C9.8026239 36.94128784 9.63681824 37.52402466 9.46598816 38.12442017 C6.40065652 39.65708599 3.19844544 39.22718488 -0.15901184 39.18692017 C-0.86541809 39.18240845 -1.57182434 39.17789673 -2.29963684 39.17324829 C-4.04446459 39.16145891 -5.78924884 39.14352341 -7.53401184 39.12442017 C-7.55866034 33.73095029 -7.57684715 28.33751291 -7.58894348 22.94400024 C-7.59398416 21.10773142 -7.60081661 19.27146663 -7.60945129 17.43521118 C-7.62152856 14.80165615 -7.62724265 12.168154 -7.63166809 9.53457642 C-7.63682938 8.70853409 -7.64199066 7.88249176 -7.64730835 7.03141785 C-7.64750389 5.06205649 -7.59605336 3.09280403 -7.53401184 1.12442017 C-5.58035878 -0.8292329 -2.60001432 0.00419893 0 0 Z " fill="#FBFCFC" transform="translate(227.5340118408203,1.875579833984375)"/>
<path d="M0 0 C33.66 0 67.32 0 102 0 C103.15033784 17.25506757 103.15033784 17.25506757 103.0625 24.9375 C103.05798828 25.72833984 103.05347656 26.51917969 103.04882812 27.33398438 C103.03738141 29.22269169 103.01947053 31.11135836 103 33 C100.02077407 33.02683987 97.04178705 33.04676037 94.0625 33.0625 C93.21236328 33.07087891 92.36222656 33.07925781 91.48632812 33.08789062 C90.67744141 33.09111328 89.86855469 33.09433594 89.03515625 33.09765625 C88.2862915 33.10289307 87.53742676 33.10812988 86.76586914 33.11352539 C85 33 85 33 84 32 C83.21465562 27.68347215 82.63236599 23.34224644 82 19 C76.39 18.67 70.78 18.34 65 18 C65.33 43.08 65.66 68.16 66 94 C71.94 94.99 71.94 94.99 78 96 C81.77859468 99.77859468 79 106.65626015 79 112 C60.19 112 41.38 112 22 112 C22 107.05 22 102.1 22 97 C29 95 29 95 36 95 C36 69.92 36 44.84 36 19 C30.72 19 25.44 19 20 19 C19.34 23.62 18.68 28.24 18 33 C11.73 33 5.46 33 -1 33 C-1.02723328 29.37494824 -1.04695114 25.75010573 -1.0625 22.125 C-1.07087891 21.11179687 -1.07925781 20.09859375 -1.08789062 19.0546875 C-1.09111328 18.04921875 -1.09433594 17.04375 -1.09765625 16.0078125 C-1.10289307 15.09660645 -1.10812988 14.18540039 -1.11352539 13.24658203 C-0.95867479 8.81818797 -0.44091099 4.40910991 0 0 Z " fill="#FBFCFC" transform="translate(357,2)"/>
<path d="M0 0 C1.01775513 -0.00315216 2.03551025 -0.00630432 3.08410645 -0.009552 C4.19137085 -0.00752777 5.29863525 -0.00550354 6.43945312 -0.00341797 C7.56766479 -0.00437469 8.69587646 -0.00533142 9.85827637 -0.00631714 C12.24910538 -0.00699915 14.63993624 -0.00514344 17.03076172 -0.00097656 C20.70479464 0.00437137 24.37870529 -0.0009209 28.05273438 -0.00732422 C30.3691409 -0.00666344 32.68554734 -0.00538229 35.00195312 -0.00341797 C36.66284973 -0.00645432 36.66284973 -0.00645432 38.3572998 -0.009552 C39.37505493 -0.00639984 40.39281006 -0.00324768 41.44140625 0 C42.79256531 0.00119339 42.79256531 0.00119339 44.17102051 0.00241089 C46.22070312 0.12939453 46.22070312 0.12939453 47.22070312 1.12939453 C47.29342054 3.48253008 47.3044118 5.83773122 47.28320312 8.19189453 C47.27417969 9.48224609 47.26515625 10.77259766 47.25585938 12.10205078 C47.24425781 13.10107422 47.23265625 14.10009766 47.22070312 15.12939453 C42.54168028 17.33128763 40.59553855 18.12939453 35.22070312 18.12939453 C35.22070312 42.87939453 35.22070312 67.62939453 35.22070312 93.12939453 C44.13070312 92.79939453 53.04070313 92.46939453 62.22070312 92.12939453 C64.20954558 86.16286718 66.00720858 80.37517987 67.57226562 74.31689453 C68.22070312 72.12939453 68.22070312 72.12939453 69.22070312 71.12939453 C71.91725166 71.05619832 74.5876177 71.03696916 77.28320312 71.06689453 C78.04181641 71.07140625 78.80042969 71.07591797 79.58203125 71.08056641 C81.46162184 71.09238773 83.34117211 71.11032375 85.22070312 71.12939453 C85.31401483 80.57461262 85.34130234 90.00656926 84.84570312 99.44189453 C84.79941772 100.47044556 84.79941772 100.47044556 84.75219727 101.51977539 C84.50321585 105.70276675 83.60349223 109.19347075 82.22070312 113.12939453 C70.89458682 113.15251708 59.5684761 113.17030917 48.24234104 113.1812067 C42.98373649 113.18643573 37.72514803 113.19353372 32.46655273 113.20483398 C27.39617186 113.21566219 22.3258065 113.22167122 17.25541496 113.22427177 C15.31643364 113.22612615 13.37745322 113.22974698 11.43847847 113.23512459 C8.73248553 113.24233413 6.02655757 113.24338551 3.32055664 113.24291992 C2.10567818 113.24831284 2.10567818 113.24831284 0.86625671 113.2538147 C-4.66524471 113.24344669 -4.66524471 113.24344669 -5.77929688 112.12939453 C-5.87910901 109.45208073 -5.91809563 106.80635279 -5.90429688 104.12939453 C-5.90816406 103.37916016 -5.91203125 102.62892578 -5.91601562 101.85595703 C-5.90590741 96.25600506 -5.90590741 96.25600506 -4.77929688 95.12939453 C-0.32429687 94.63439453 -0.32429687 94.63439453 4.22070312 94.12939453 C4.71570313 56.50939453 4.71570313 56.50939453 5.22070312 18.12939453 C1.92070312 17.79939453 -1.37929688 17.46939453 -4.77929688 17.12939453 C-6.53489629 15.37379511 -5.91151607 13.09357012 -5.91601562 10.75830078 C-5.91214844 10.05576172 -5.90828125 9.35322266 -5.90429688 8.62939453 C-5.90816406 7.92685547 -5.91203125 7.22431641 -5.91601562 6.50048828 C-5.90464522 0.59925057 -5.83723081 0.00515564 0 0 Z " fill="#F8F9F9" transform="translate(8.779296875,1.87060546875)"/>
<path d="M0 0 C0.9215538 0.00222061 1.8431076 0.00444122 2.79258728 0.00672913 C3.83359085 0.00680466 4.87459442 0.00688019 5.94714355 0.00695801 C7.07941879 0.01211929 8.21169403 0.01728058 9.37828064 0.02259827 C10.53106003 0.02401321 11.68383942 0.02542816 12.87155151 0.02688599 C16.57043503 0.03250446 20.26925903 0.0450601 23.96812439 0.05775452 C26.46877456 0.06276714 28.96942567 0.06733045 31.47007751 0.07142639 C37.6152829 0.0824799 43.76044354 0.09975692 49.90562439 0.12025452 C49.90562439 5.40025452 49.90562439 10.68025452 49.90562439 16.12025452 C43.90562439 18.12025452 43.90562439 18.12025452 37.90562439 18.12025452 C37.90562439 42.87025452 37.90562439 67.62025452 37.90562439 93.12025452 C47.14562439 93.12025452 56.38562439 93.12025452 65.90562439 93.12025452 C66.56562439 90.15025452 67.22562439 87.18025452 67.90562439 84.12025452 C68.38766963 82.13663835 68.88458196 80.15648588 69.40562439 78.18275452 C69.64281189 77.26623108 69.87999939 76.34970764 70.12437439 75.40541077 C70.90562439 73.12025452 70.90562439 73.12025452 72.90562439 71.12025452 C75.48626568 70.97527467 77.95506323 70.93347906 80.53062439 70.99525452 C81.59023376 71.00878967 81.59023376 71.00878967 82.67124939 71.02259827 C84.41618537 71.04617848 86.16094734 71.08204991 87.90562439 71.12025452 C87.93513262 75.51607328 87.95259121 79.91186592 87.96812439 84.30775452 C87.9765033 85.53429749 87.9848822 86.76084045 87.99351501 88.02455139 C88.01473935 96.06857445 87.94267029 104.13089155 86.90562439 112.12025452 C85.09690978 113.92896913 82.61549132 113.24661273 80.2077179 113.25578308 C78.98116989 113.25274673 78.98116989 113.25274673 77.72984314 113.24964905 C76.44456223 113.25227753 76.44456223 113.25227753 75.13331604 113.25495911 C72.28656519 113.25937869 69.43987592 113.25643926 66.59312439 113.25306702 C64.62396737 113.25374003 62.65481042 113.25471002 60.68565369 113.25596619 C56.55291454 113.2574433 52.42019697 113.25528816 48.28746033 113.25062561 C42.97737918 113.24492832 37.66734858 113.24820725 32.35726929 113.25419807 C28.28936885 113.25780331 24.2214805 113.25666527 20.15357971 113.25407028 C18.19506321 113.25340091 16.23654563 113.25422979 14.2780304 113.25654984 C11.54579239 113.25907575 8.81363742 113.25523663 6.08140564 113.24964905 C4.85485764 113.25268539 4.85485764 113.25268539 3.60353088 113.25578308 C-1.98011315 113.23451697 -1.98011315 113.23451697 -3.09437561 112.12025452 C-3.19418775 109.44294072 -3.23317436 106.79721277 -3.21937561 104.12025452 C-3.2232428 103.37002014 -3.22710999 102.61978577 -3.23109436 101.84681702 C-3.22098614 96.24686505 -3.22098614 96.24686505 -2.09437561 95.12025452 C3.35062439 94.62525452 3.35062439 94.62525452 8.90562439 94.12025452 C8.90562439 69.04025452 8.90562439 43.96025452 8.90562439 18.12025452 C5.27562439 17.79025452 1.64562439 17.46025452 -2.09437561 17.12025452 C-3.84997503 15.3646551 -3.2265948 13.0844301 -3.23109436 10.74916077 C-3.22722717 10.0466217 -3.22335999 9.34408264 -3.21937561 8.62025452 C-3.2232428 7.91771545 -3.22710999 7.21517639 -3.23109436 6.49134827 C-3.21894306 0.18482475 -3.21894306 0.18482475 0 0 Z " fill="#FAFBFB" transform="translate(499.09437561035156,1.8797454833984375)"/>
<path d="M0 0 C7.38728102 -0.02526692 14.77455098 -0.0428316 22.16186523 -0.05493164 C24.67716895 -0.05997363 27.19246972 -0.06680703 29.70776367 -0.07543945 C33.31429775 -0.08751094 36.92079323 -0.09322949 40.52734375 -0.09765625 C42.22575661 -0.10539818 42.22575661 -0.10539818 43.95848083 -0.11329651 C45.51998619 -0.11340981 45.51998619 -0.11340981 47.11303711 -0.11352539 C48.03459091 -0.115746 48.95614471 -0.11796661 49.90562439 -0.12025452 C52 0 52 0 53 1 C53.09975032 3.51136104 53.13882183 5.98903415 53.125 8.5 C53.13080078 9.55380859 53.13080078 9.55380859 53.13671875 10.62890625 C53.12661378 15.87338622 53.12661378 15.87338622 52 17 C48.37 17.33 44.74 17.66 41 18 C41.33 43.08 41.66 68.16 42 94 C44.97 94.33 47.94 94.66 51 95 C53 97 53 97 53 112 C35.51 112 18.02 112 0 112 C0 96 0 96 1 95 C5.455 94.505 5.455 94.505 10 94 C10.495 56.38 10.495 56.38 11 18 C7.7 17.67 4.4 17.34 1 17 C0.34 16.67 -0.32 16.34 -1 16 C-1.02692484 13.70839681 -1.04636124 11.41670454 -1.0625 9.125 C-1.07410156 7.84882813 -1.08570313 6.57265625 -1.09765625 5.2578125 C-1 2 -1 2 0 0 Z " fill="#F9FAFA" transform="translate(133,2)"/>
<path d="M0 0 C7.77674888 4.74598165 11.94372393 13.13525379 14.5625 21.5625 C14.92085937 22.69945312 15.27921875 23.83640625 15.6484375 25.0078125 C17.11330629 31.0432415 16.89132515 37.2008287 16.875 43.375 C16.89111328 44.58220703 16.90722656 45.78941406 16.92382812 47.03320312 C16.93010089 58.6315437 14.94544556 71.49148462 6.859375 80.44921875 C1.70321749 85.07855147 -2.99673779 87.12342033 -9.96875 86.9375 C-16.81769659 85.89715368 -22.92271199 82.17627534 -27.12890625 76.70703125 C-34.08532292 65.30681407 -35.77831881 53.78054476 -35.6875 40.6875 C-35.69523437 39.58019531 -35.70296875 38.47289062 -35.7109375 37.33203125 C-35.68203115 25.03238002 -34.32930064 12.35106506 -25.81640625 2.73046875 C-19.20075922 -2.99429314 -7.92045166 -3.43011686 0 0 Z " fill="#475D51" transform="translate(513.4375,1119.4375)"/>
<path d="M0 0 C5.61 0 11.22 0 17 0 C16.67 1.32 16.34 2.64 16 4 C16 3.34 16 2.68 16 2 C11.38 2 6.76 2 2 2 C2 26.42 2 50.84 2 76 C1.34 76 0.68 76 0 76 C0 50.92 0 25.84 0 0 Z " fill="#63746B" transform="translate(422,20)"/>
<path d="M0 0 C2.64590014 -0.02684679 5.29153096 -0.04676357 7.9375 -0.0625 C8.69224609 -0.07087891 9.44699219 -0.07925781 10.22460938 -0.08789062 C12.14994313 -0.09652441 14.07535581 -0.05224333 16 0 C17.59735222 1.59735222 17.13527765 3.27574384 17.14526367 5.48803711 C17.15164352 6.44250229 17.15802338 7.39696747 17.16459656 8.38035583 C17.16570938 9.41886185 17.1668222 10.45736786 17.16796875 11.52734375 C17.17129715 12.58659561 17.17462555 13.64584747 17.17805481 14.73719788 C17.18312869 16.98259038 17.18546299 19.22799045 17.18530273 21.47338867 C17.18748841 24.91923378 17.20563721 28.36475852 17.22460938 31.81054688 C17.22754329 33.98697807 17.2295281 36.16341079 17.23046875 38.33984375 C17.23765427 39.37632553 17.24483978 40.41280731 17.25224304 41.48069763 C17.24916641 42.43831497 17.24608978 43.39593231 17.24291992 44.38256836 C17.24434494 45.22782578 17.24576996 46.07308319 17.24723816 46.94395447 C17 49 17 49 15 51 C15 34.83 15 18.66 15 2 C10.05 2 5.1 2 0 2 C0 1.34 0 0.68 0 0 Z " fill="#62746B" transform="translate(377,20)"/>
<path d="M0 0 C2.45823172 3.68734758 3.01242616 6.69699971 4 11 C3.01 11 2.02 11 1 11 C1 29.15 1 47.3 1 66 C0.67 66 0.34 66 0 66 C0 44.22 0 22.44 0 0 Z " fill="#72857C" transform="translate(305,1137)"/>
<path d="M0 0 C1.32 0.33 2.64 0.66 4 1 C3.67 6.28 3.34 11.56 3 17 C2.01 17 1.02 17 0 17 C0 11.39 0 5.78 0 0 Z " fill="#576B61" transform="translate(0,0)"/>
<path d="M0 0 C-0.33 0.99 -0.66 1.98 -1 3 C-4.96 3 -8.92 3 -13 3 C-13 2.67 -13 2.34 -13 2 C-11.39658445 1.66307215 -9.79223445 1.33058907 -8.1875 1 C-7.29417969 0.814375 -6.40085937 0.62875 -5.48046875 0.4375 C-3 0 -3 0 0 0 Z " fill="#607469" transform="translate(521,1221)"/>
</svg>
