<svg width="24" height="24" viewBox="0 0 24 24" fill="none" xmlns="http://www.w3.org/2000/svg">
<path d="M3.10013 11.3L6.70013 14.6L5.70013 19.2C5.60013 19.8 5.80013 20.4 6.30013 20.7C6.50013 20.9 6.80013 21 7.10013 21C7.30013 21 7.50013 21 7.70013 20.9C7.70013 20.9 7.80013 20.9 7.80013 20.8L11.9001 18.5L16.0001 20.8C16.0001 20.8 16.1001 20.8 16.1001 20.9C16.6001 21.1 17.2001 21.1 17.6001 20.8C18.1001 20.5 18.3001 19.9 18.2001 19.3L17.2001 14.7C17.6001 14.4 18.2001 13.8 18.8001 13.2L20.7001 11.5L20.8001 11.4C21.2001 11 21.3001 10.4 21.1001 9.9C20.9001 9.4 20.5001 9 19.9001 8.9H19.8001L15.1001 8.4L13.2001 4.1C13.2001 4.1 13.2001 4 13.1001 4C13.0001 3.3 12.5001 3 12.0001 3C11.5001 3 11.0001 3.3 10.7001 3.8C10.7001 3.8 10.7001 3.9 10.6001 3.9L8.70013 8.2L4.00013 8.7H3.90013C3.40013 8.8 2.90013 9.2 2.70013 9.7C2.60013 10.3 2.70013 10.9 3.10013 11.3ZM12.0001 16.3V5.8L13.7001 9.6C13.8001 9.9 14.2001 10.1 14.5001 10.2L18.7001 10.7L15.6001 13.5C15.3001 13.7 15.2001 14.1 15.3001 14.5C15.3001 14.7 15.8001 16.7 16.1001 18.6L12.5001 16.5C12.3001 16.3 12.2001 16.3 12.0001 16.3Z" fill="#F4CE14"/>
</svg>
